<?xml version="1.0" encoding="UTF-8"?>
<svg width="1080" height="1920" viewBox="0 0 1080 1920"
     xmlns="http://www.w3.org/2000/svg">

  <!-- Outer phone body -->
  <rect x="20" y="20" width="1040" height="1880" rx="100" ry="100"
        fill="none" stroke="#2a2a2a" stroke-width="40"/>

  <!-- Screen bezel top -->
  <rect x="20" y="20" width="1040" height="120" rx="100" ry="100" fill="#111111"/>
  <rect x="20" y="80" width="1040" height="80" fill="#111111"/>

  <!-- Screen bezel bottom -->
  <rect x="20" y="1780" width="1040" height="120" rx="0" ry="0" fill="#111111"/>
  <rect x="20" y="1840" width="1040" height="60" rx="100" ry="100" fill="#111111"/>

  <!-- Notch / pill camera -->
  <rect x="440" y="45" width="200" height="50" rx="25" ry="25" fill="#0a0a0a"/>

  <!-- Home indicator bar -->
  <rect x="390" y="1850" width="300" height="12" rx="6" ry="6" fill="#555555"/>

  <!-- Side buttons (visual) -->
  <rect x="-5" y="400" width="10" height="80" rx="5" ry="5" fill="#1a1a1a"/>
  <rect x="-5" y="520" width="10" height="130" rx="5" ry="5" fill="#1a1a1a"/>
  <rect x="-5" y="680" width="10" height="130" rx="5" ry="5" fill="#1a1a1a"/>
  <rect x="1075" y="500" width="10" height="180" rx="5" ry="5" fill="#1a1a1a"/>

  <!-- Subtle glare effect -->
  <ellipse cx="300" cy="200" rx="120" ry="60"
           fill="white" fill-opacity="0.03"/>
</svg>